<svg width="111" height="174" viewBox="0 0 111 174" fill="none" xmlns="http://www.w3.org/2000/svg">
<g clip-path="url(#clip0)">
<path d="M49.2901 22.8946C39.0246 19.6305 34.1722 14.9708 21.2325 6.9866C19.0744 5.65497 17.8826 3.13604 18.2264 0.568387C21.305 -22.3937 26.8118 -40.8454 31.1545 -52.6625C34.6471 -62.1654 42.839 -69.014 52.5855 -70.7601C66.85 -73.315 80.6124 -73.5309 93.4342 -72.2897C95.6616 -72.0741 97.5907 -70.6483 98.5397 -68.5745C105.343 -53.7056 113.071 -41.4576 113.829 -24.125C113.897 -22.5697 115.988 -22.2255 116.528 -23.6837C119.492 -31.6747 124.051 -46.2265 126.322 -64.8204C126.433 -65.7306 127.33 -66.3148 128.172 -66.0143C138.123 -62.4653 152.194 -56.2011 158.912 -52.8209C159.306 -52.6232 159.581 -52.2506 159.658 -51.8082C163.048 -32.5467 166.626 -5.1724 164.703 16.9566C164.564 18.5553 166.692 19.1372 167.358 17.6816C172.606 6.22044 181.952 -15.3944 186.172 -32.5861C186.437 -33.6635 187.734 -34.0495 188.505 -33.275C191.174 -30.5906 195.73 -25.9212 197.363 -24.2571C197.572 -24.0448 197.707 -23.7739 197.752 -23.4749C200.207 -7.11218 201.424 15.7662 194.162 34.7621C193.673 36.0388 195.01 37.2192 196.164 36.5247C202.309 32.8263 214.814 23.9799 220.906 10.2541C221.384 9.17803 222.854 9.10644 223.403 10.1399C230.475 23.4496 234.272 36.9676 234.294 53.1516C234.295 53.5974 234.09 54.0156 233.744 54.2874C223.569 62.275 211.101 73.7132 194.885 75.1535C193.382 75.2875 193.088 77.4143 194.507 77.9291C200.827 80.2217 211.325 83.2664 224.881 84.4316C225.898 84.5191 226.488 85.6633 225.97 86.5687C221.627 94.1584 215.399 101.197 206.884 107.489C197.819 114.978 179.309 114.993 175.322 96.5473C174.427 92.4264 175.389 84.2837 173.576 80.3963C169.574 71.8142 165.214 67.4799 160.634 61.1659C152.446 50.451 138.943 47.4316 130.451 54.4112C121.988 61.4344 121.702 75.848 129.89 86.5648C134.801 92.6691 137.836 98.019 144.981 104.021C148.213 106.736 156.234 106.465 159.892 108.303C163.083 109.902 165.741 112.207 167.797 114.898C174.155 123.218 170.2 137.795 162.834 143.881C155.208 150.906 147.408 155.567 139.521 158.282C138.425 158.659 137.382 157.59 137.756 156.467C143.594 138.942 142.365 128.124 140.96 122.87C140.602 121.531 138.769 121.476 138.304 122.785C132.287 139.732 124.607 151.304 114.431 160.38C114.095 160.679 113.644 160.794 113.212 160.693C107.937 159.452 96.4144 156.636 91.7851 154.66C82.8813 150.86 74.8998 145.167 67.85 138.564C67.0114 137.778 67.4169 136.353 68.5327 136.113C82.622 133.089 93.6577 122.619 98.6022 117.169C99.546 116.13 98.6045 114.474 97.2597 114.805C79.1197 119.277 66.4936 124.248 48.8259 118.546C48.5074 118.444 48.2368 118.226 48.0643 117.933C45.8539 114.187 32.6599 91.9775 27.7077 83.5453C27.0586 82.4404 28.0644 81.0922 29.2803 81.4274C51.7518 87.6108 74.9388 80.2935 85.216 76.2039C86.6083 75.6499 86.3101 73.5504 84.8241 73.4417C63.8993 71.9147 42.1333 67.9828 24.2875 60.0452C23.8805 59.8639 23.5862 59.4963 23.4899 59.0522C21.8415 51.4766 19.1511 35.7963 18.0767 24.916C17.9868 24.0053 18.7463 23.2396 19.6334 23.3397C32.0965 24.7494 41.8416 25.4101 48.7981 25.6936C50.4285 25.7612 50.8444 23.3892 49.2901 22.8946Z" fill="#4E901E"/>
<path d="M39.4759 -64.5791C49.7496 -51.1339 119.928 40.7086 130.42 54.4388C130.826 54.1923 133.681 51.5212 138.652 50.8349C138.657 50.8309 138.666 50.832 138.675 50.833C146.807 49.6093 155.359 54.248 160.637 61.169C166.543 68.9965 170.036 72.8184 173.576 80.3986C174.625 82.6344 174.755 87.0128 174.744 87.1107C175.006 92.5417 174.198 98.9206 179.715 106.049C186.073 114.367 199.517 113.578 206.884 107.488C213.887 102.317 219.338 96.6418 223.468 90.5682C224.364 89.2534 225.198 87.9221 225.971 86.5698C226.487 85.6636 225.901 84.5199 224.884 84.4315C223.152 84.2847 221.469 84.1011 219.843 83.8966C208.712 82.5019 200.019 79.9314 194.509 77.9302C193.097 77.4094 193.374 75.3015 194.886 75.1526C201.009 74.6085 206.552 72.6641 211.689 69.9792C219.85 65.7237 226.975 59.6061 233.744 54.2914L233.744 54.287C234.093 54.0146 234.296 53.5993 234.297 53.1519C234.281 37.1211 230.482 23.4315 223.401 10.1402C222.857 9.10362 221.385 9.17768 220.908 10.2511C214.812 23.9789 202.309 32.8241 196.166 36.5222C195.01 37.2151 193.673 36.0364 194.164 34.7592C200.933 17.0521 200.567 -4.80473 197.755 -23.4724L197.751 -23.4773C197.672 -24.0177 198.193 -23.5295 188.504 -33.277C187.933 -33.8456 187.043 -33.8172 186.476 -33.1872C185.395 -31.9219 184.352 -20.0212 168.827 14.4473C168.351 15.5024 167.86 16.584 167.357 17.6824C166.691 19.1352 164.563 18.5516 164.705 16.9549C164.887 14.8915 165.014 12.7804 165.101 10.6362C165.963 -10.2081 162.732 -34.3463 159.659 -51.8085C159.583 -52.2508 159.307 -52.6226 158.912 -52.8219C150.608 -57.0032 136.504 -63.0318 128.171 -66.0135C127.329 -66.315 126.435 -65.7318 126.322 -64.8218C124.547 -50.2575 121.082 -36.1255 116.531 -23.6874C116.038 -22.4712 114.651 -22.5366 114.072 -23.3532L114.072 -23.3577C113.378 -24.2618 114.268 -28.2599 111.711 -37.7079C111.711 -37.7123 111.711 -37.7123 111.711 -37.7123C108.613 -48.9954 103.555 -57.6024 98.5401 -68.5731C97.5919 -70.6491 95.66 -72.0729 93.4358 -72.29C78.3328 -73.7989 61.4612 -72.7126 52.5079 -70.7437C47.6452 -69.8594 43.1686 -67.7046 39.4759 -64.5791Z" fill="#5EAC24"/>
<path d="M18.1807 1.13804C18.0814 3.47635 19.217 5.7419 21.2324 6.98871C34.1721 14.9729 39.0234 19.6311 49.2911 22.8946C50.861 23.3914 50.3971 25.7764 48.8023 25.6967C41.8423 25.4132 32.0995 24.751 19.634 23.3432C18.7505 23.2422 17.9905 24.0083 18.077 24.9181C19.1542 35.7974 21.8447 51.4768 23.4901 59.0548C23.589 59.4997 23.8837 59.8646 24.2897 60.0463C40.3859 67.2077 59.6683 71.1061 78.6434 72.9228C80.7106 73.1219 82.7719 73.2924 84.8266 73.4437C86.3134 73.5529 86.6094 75.6526 85.2193 76.2069C84.053 76.6701 82.7137 77.1789 81.2316 77.7042C69.6782 81.7861 49.1999 86.9122 29.2814 81.4301C28.0751 81.0915 27.0579 82.4393 27.7123 83.5489C49.5951 120.78 48.2365 118.337 48.8292 118.55C66.4966 124.25 79.124 119.279 97.2599 114.808C98.6064 114.478 99.5483 116.133 98.6025 117.172C82.9644 134.401 68.7768 135.654 67.9163 136.422C67.4686 136.8 67.2965 137.433 67.4859 138.001C67.4854 138.005 67.4897 138.005 67.4897 138.005C67.8645 139.06 79.0288 149.219 91.7869 154.66C96.4181 156.635 107.94 159.455 113.215 160.693C113.661 160.804 114.131 160.667 114.436 160.38C133.724 143.115 137.048 123.105 138.92 122.032C139.646 121.602 140.699 121.89 140.964 122.872C145.023 138.068 137.556 155.794 137.687 157.068C137.748 157.844 138.526 158.595 139.524 158.285C148.202 155.297 155.934 150.24 162.836 143.884C170.202 137.798 174.155 123.219 167.796 114.901C165.741 112.209 163.084 109.905 159.891 108.304C156.235 106.469 148.212 106.735 144.983 104.02C138.716 98.7902 135.348 93.5608 134.128 92.1112C133.995 91.7277 128.937 85.932 126.925 81.8321C126.925 81.8321 126.926 81.8276 126.917 81.8217C121.922 71.9114 123.132 60.4596 130.418 54.4393C130.331 54.3248 40.5401 -63.1831 39.4741 -64.579C35.7969 -61.4702 32.8951 -57.3918 31.1547 -52.663C22.6374 -29.4778 18.2276 -1.61681 18.1807 1.13804Z" fill="#4E901E"/>
<path d="M29.281 81.4289C49.1999 86.9111 69.6781 81.785 81.2311 77.7031C93.4046 99.7315 109.269 121.594 129.919 141.371C126.425 147.363 121.498 154.058 114.436 160.379C114.131 160.666 113.661 160.803 113.215 160.692C107.94 159.454 96.4176 156.635 91.7869 154.659C79.0287 149.218 67.8644 139.059 67.4897 138.004C67.4897 138.004 67.4854 138.004 67.4859 137.999C67.2965 137.433 67.4686 136.799 67.9163 136.421C68.7767 135.653 82.9644 134.399 98.6025 117.171C99.5483 116.132 98.6064 114.477 97.2598 114.807C79.1239 119.279 66.4965 124.249 48.8291 118.549C48.2364 118.337 49.537 120.68 27.7122 83.5477C27.0571 82.4377 28.0746 81.0904 29.281 81.4289Z" fill="#5EAC24"/>
<path d="M31.1558 -52.6634C32.8962 -57.3926 35.7985 -61.471 39.4751 -64.5794C39.2754 -62.8452 39.1522 -57.9639 39.6871 -54.6972C44.1162 -27.6555 51.1486 20.9133 78.6432 72.9223C59.6681 71.1055 40.3861 67.2072 24.2895 60.0457C23.883 59.864 23.5888 59.4991 23.4899 59.0543C21.8444 51.4763 19.1535 35.7968 18.0768 24.9176C17.9898 24.0077 18.7503 23.2416 19.6338 23.3427C32.0993 24.7504 41.8421 25.4127 48.8021 25.6961C50.3969 25.7758 50.8608 23.3909 49.2909 22.894C39.0232 19.6306 34.1719 14.9728 21.2322 6.98817C19.2168 5.74136 18.0812 3.47582 18.1805 1.13751C18.2273 -1.6169 22.6371 -29.4779 31.1558 -52.6634Z" fill="#5EAC24"/>
<path d="M64.6111 4.31856C63.5613 5.90956 63.9686 8.06835 65.514 9.13564C80.3769 19.3727 94.1409 26.1133 106.422 29.1691C108.676 29.7244 112.231 26.8468 112.211 24.4372C112.005 -6.88213 93.931 -46.4925 78.3213 -73.0222C75.7318 -73.0246 73.1114 -72.9562 70.4647 -72.8161C74.9117 -65.5376 103.736 -16.9687 105.361 21.6859C94.53 18.54 82.4209 12.3895 69.3144 3.36052C67.7637 2.29713 65.6614 2.72312 64.6111 4.31856Z" fill="#47821C"/>
<path d="M23.3525 -26.7529C29.0845 -20.8984 40.3355 -9.9466 54.3597 0.950275C54.8602 1.33877 55.4345 1.56265 56.0176 1.62936C59.4439 2.02137 61.191 -2.48126 58.4696 -4.59385C42.0547 -17.3492 29.2212 -30.5149 25.3786 -34.5773C24.2067 -30.346 23.5339 -27.4748 23.3525 -26.7529Z" fill="#47821C"/>
<path d="M37.9139 100.814C39.2784 103.105 40.6225 105.376 41.8674 107.481C62.1866 105.81 110.11 100.668 131.122 88.1758C130.335 87.0889 128.804 85.3694 127.258 82.4702C106.137 94.6466 55.0025 99.5004 37.9139 100.814Z" fill="#47821C"/>
<path d="M83.6276 150.523C85.7 151.748 87.8348 152.869 90.0275 153.875C95.249 148.864 104.206 139.953 112.95 129.773C114.187 128.334 114.056 126.137 112.656 124.872C111.255 123.611 109.117 123.758 107.875 125.202C98.183 136.485 88.228 146.177 83.6276 150.523Z" fill="#47821C"/>
<path d="M19.6968 37.6119C20.0804 40.1781 20.4894 42.7566 20.9013 45.2327C31.7991 48.4705 52.1313 53.9905 70.4181 56.185C70.7271 56.2249 71.0318 56.2598 71.337 56.2947C90.6891 58.5088 111.491 57.9375 125.921 49.4479C126.262 49.249 126.61 48.9485 126.823 48.7071C135.326 39.078 141.256 23.7133 144.447 3.04672C144.737 1.14977 143.476 -0.621755 141.629 -0.912467C139.78 -1.19384 138.05 0.104875 137.756 1.99688C134.821 21.0191 129.57 35.0296 122.153 43.6644C108.669 51.3533 87.1486 51.0961 66.942 48.2854C46.816 45.4843 27.989 40.1505 19.6968 37.6119Z" fill="#47821C"/>
</g>
<defs>
<clipPath id="clip0">
<rect width="223.397" height="229.236" fill="white" transform="matrix(-0.993519 -0.11367 -0.11367 0.993519 248.007 -54.6064)"/>
</clipPath>
</defs>
</svg>
