<svg width="58" height="153" viewBox="0 0 58 153" fill="none" xmlns="http://www.w3.org/2000/svg">
<path d="M4.48348 84.3782C4.89515 83.0081 4.11821 81.5637 2.74815 81.1521C1.37809 80.7404 -0.0662988 81.5173 -0.47797 82.8874L-7.93193 107.695L-107.161 77.8788C-114.011 75.8204 -121.233 79.7051 -123.291 86.5554C-123.437 86.953 -123.559 87.3589 -123.657 87.771C-124.795 94.5016 -120.668 101.005 -114.094 102.843L-104.692 105.668L-100.965 93.264L-76.1577 100.718L-79.8847 113.122L-15.3859 132.502C-12.6458 133.325 -9.75699 131.771 -8.93365 129.031L-1.47969 104.224" fill="#3B97D3"/>
<path d="M7.46498 74.4553L-0.309497 100.329L-27.6755 49.4534L-7.32621 38.5283C-5.53072 51.5668 -0.439928 63.9321 7.46498 74.4553Z" fill="#95A5A5"/>
<path d="M-0.309558 100.329L-0.734433 101.743C-1.55437 104.472 -5.20327 108.515 -7.93207 107.695L-8.13052 107.635L-36.7807 54.3718L-90.0935 83.0071L-104.085 78.803L-46.2653 47.6812L-51.1838 38.5761L-56.0699 29.4537L-79.5141 -14.1312L-75.3027 -28.1472L-37.1255 42.8273L-18.8657 33.0054L-49.4074 -23.7743L-35.3665 -19.5553L-9.75316 28.0621L-7.26905 26.7259C-7.74293 30.6447 -7.76214 34.6051 -7.32629 38.5282L-27.6756 49.4533L-0.309558 100.329Z" fill="#F3D55B"/>
<path d="M-5.6605 19.1222C-6.40914 21.6159 -6.94966 24.1675 -7.27651 26.7507L-9.76062 28.0869L-35.3666 -19.5554L29.8268 0.0335769C14.7561 -4.4948 -1.13213 4.05145 -5.6605 19.1222Z" fill="#F29C1F"/>
<path d="M-8.13054 107.635L-90.0935 83.0071L-36.7808 54.3718L-8.13054 107.635Z" fill="#95A5A5"/>
<path d="M29.8267 0.0334495C14.756 -4.49492 -1.13222 4.05133 -5.66059 19.122C-6.40923 21.6158 -6.94975 24.1674 -7.2766 26.7505C-7.75048 30.6693 -7.76969 34.6297 -7.33385 38.5529C-5.53208 51.5834 -0.438898 63.9397 7.4648 74.4551C7.4648 74.4551 40.4103 63.8257 48.9152 35.5207C51.0898 28.2835 50.3004 20.4789 46.7206 13.8237C43.1408 7.16856 37.0639 2.20805 29.8267 0.0334495ZM17.9003 39.725C9.67996 37.255 5.01837 28.5887 7.4884 20.3683C9.95842 12.1479 18.6247 7.48631 26.8451 9.95633C35.0655 12.4264 39.727 21.0926 37.257 29.313C36.0709 33.2606 33.3651 36.5753 29.7351 38.5279C26.105 40.4805 21.8479 40.9111 17.9003 39.725Z" fill="#E64C3C"/>
<path d="M17.9003 39.725C26.1207 42.1951 34.7869 37.5335 37.257 29.3131C39.727 21.0927 35.0654 12.4264 26.845 9.95638C18.6246 7.48636 9.95834 12.1479 7.48832 20.3683C5.0183 28.5887 9.67989 37.255 17.9003 39.725Z" fill="#F5EFCA"/>
<path d="M17.155 42.2058C7.56448 39.3241 2.12595 29.2134 5.00764 19.623C7.88933 10.0325 18 4.59401 27.5905 7.47571C37.181 10.3574 42.6195 20.4681 39.7378 30.0585C38.354 34.664 35.1973 38.5312 30.9622 40.8092C26.7271 43.0873 21.7605 43.5896 17.155 42.2058ZM26.0997 12.4372C19.2494 10.3788 12.0274 14.2634 9.96909 21.1138C7.91074 27.9641 11.7954 35.186 18.6457 37.2443C25.4961 39.3027 32.718 35.4181 34.7763 28.5677C35.7648 25.2781 35.406 21.7305 33.7788 18.7055C32.1516 15.6804 29.3893 13.4256 26.0997 12.4372Z" fill="#C03A2B"/>
</svg>
